<svg xmlns="http://www.w3.org/2000/svg" viewBox="0 0 700 700" xml:space="preserve"><path fill="#33cc95" d="M625.642 266.794c1.152-2.137 1.907-4.65 3.518-6.354a5298 5298 0 0 1 45.997-48.006c1.462-1.507 3.764-2.198 5.676-3.268.778 2.17 2.235 4.337 2.236 6.507.084 120.824.045 241.648.02 362.472-.002 9.5.076 19-.01 28.497-.065 7.124-2.864 10.037-10.036 10.083-18.164.114-36.334.258-54.49-.154-3.269-.075-7.228-1.992-9.604-4.338a27660 27660 0 0 1-123.42-122.608c-16.957-16.953-33.548-34.273-50.956-52.092-.237 2.032-.496 3.22-.497 4.41-.01 53.161.003 106.323.01 159.485 0 1.833.257 3.73-.131 5.482-.47 2.12-1.147 5.53-2.371 5.836-1.86.465-4.814-.686-6.352-2.15-10.258-9.766-20.311-19.747-30.341-29.749a517840 517840 0 0 1-224.398-223.866c-7.177-7.165-14.085-14.6-21.44-22.246-7.762 7.455-14.718 14.105-21.64 20.791-14.382 13.894-28.673 27.883-43.173 41.653-3.435 3.261-4.805 6.782-4.783 11.459.118 25.164-.065 50.329.053 75.493.024 5.2-1.657 9.185-5.284 12.901-15.48 15.86-30.71 31.963-46.198 47.816-1.874 1.918-4.752 2.855-7.165 4.247-.68-2.582-1.95-5.164-1.953-7.747-.103-78.66-.08-157.321-.08-235.982 0-53.496.036-106.993-.076-160.489-.011-5.24 1.68-9.073 5.55-12.668 15.137-14.062 29.995-28.424 45-42.629 2.218-2.1 4.577-5.677 7.873-3.356 1.69 1.19 2.22 4.908 2.224 7.485.108 69.994.08 139.989.075 209.983v9.816c10.167-10.07 19.416-19.09 28.512-28.263 65.12-65.679 130.178-131.42 195.433-196.966 2.404-2.414 6.627-4.205 10.028-4.25 26.494-.347 52.994-.237 79.491-.116 2.078.01 4.15 1.17 6.226 1.796-1.023 2.101-1.567 4.689-3.138 6.234-65.086 64.057-130.262 128.02-195.435 191.99-2.008 1.97-4.093 3.863-5.6 5.282l180.161 181.524v-6.705c-.009-51.33-.051-102.659.073-153.988.006-2.54 1.463-5.075 2.244-7.613 2.56 1.103 5.734 1.58 7.593 3.4A63285 63285 0 0 1 546.249 464.19c26.22 25.857 52.193 51.965 78.908 77.864 1.034-1.76 1.79-3.426 1.79-5.091.056-87.816.057-175.631-.01-263.447-.003-2.241-.845-4.481-1.295-6.722" style="--darkreader-inline-fill:var(--darkreader-background-33cc95, #29a382);--darkreader-inline-stroke:none;opacity:1" data-index="5"/><path fill="#35e09f" d="M625.444 267.171c.648 1.864 1.49 4.104 1.492 6.345.068 87.816.067 175.631.012 263.447-.002 1.665-.757 3.33-1.428 5.056-.301-49.355-.356-98.77-.359-148.186-.002-42.095.054-84.19.283-126.662" style="--darkreader-inline-fill:var(--darkreader-background-35e09f, #19a57d);--darkreader-inline-stroke:none" data-index="6"/></svg>
